<svg fill="none" height="96" viewBox="0 0 96 96" width="96" xmlns="http://www.w3.org/2000/svg">
    <path clip-rule="evenodd" d="M48 95.2C60.5182 95.2 72.5237 90.2271 81.3754 81.3754C90.2271 72.5237 95.2 60.5182 95.2 48C95.2 35.4818 90.2271 23.4763 81.3754 14.6245C72.5237 5.77283 60.5182 0.799988 48 0.799988C35.4818 0.799988 23.4763 5.77283 14.6245 14.6245C5.77283 23.4763 0.799988 35.4818 0.799988 48C0.799988 60.5182 5.77283 72.5237 14.6245 81.3754C23.4763 90.2271 35.4818 95.2 48 95.2ZM69.8713 40.3713C70.946 39.2585 71.5407 37.7682 71.5273 36.2212C71.5138 34.6743 70.8933 33.1945 69.7994 32.1006C68.7055 31.0066 67.2257 30.3862 65.6787 30.3727C64.1318 30.3593 62.6414 30.954 61.5287 32.0287L42.1 51.4574L34.4713 43.8287C33.3585 42.754 31.8682 42.1593 30.3212 42.1727C28.7743 42.1862 27.2945 42.8066 26.2006 43.9006C25.1066 44.9945 24.4861 46.4743 24.4727 48.0212C24.4593 49.5682 25.054 51.0585 26.1287 52.1713L37.9287 63.9713C39.0351 65.0774 40.5355 65.6987 42.1 65.6987C43.6645 65.6987 45.1649 65.0774 46.2713 63.9713L69.8713 40.3713Z"
        fill="white"
        fill-rule="evenodd" />
</svg>
