<svg fill="none" height="33" viewBox="0 0 32 33" width="32" xmlns="http://www.w3.org/2000/svg">
    <circle cx="16.2927" cy="16.5366" fill="#F56C6F" r="14.5854" stroke="white"
        stroke-width="2.2439" />
    <rect fill="#F56C6F" height="12.6714" transform="translate(9.95703 10.2009)" width="12.6714" />
    <path clip-rule="evenodd" d="M16.2927 15.8598C15.8808 15.8598 15.4944 16.0136 15.1966 16.3028C14.9051 16.5858 14.7467 16.9611 14.7531 17.3488V17.3549C14.7531 17.7548 14.9115 18.1302 15.2029 18.4132C15.4944 18.6962 15.8808 18.8501 16.2927 18.8501C17.1417 18.8501 17.8259 18.1794 17.8322 17.3549C17.8322 16.955 17.6739 16.5796 17.3824 16.2966C17.091 16.0136 16.7045 15.8598 16.2927 15.8598ZM19.847 15.9028C19.5302 15.9028 19.2768 15.6567 19.2768 15.3491C19.2768 15.0414 19.5302 14.7892 19.847 14.7892C20.1638 14.7892 20.4236 15.0414 20.4236 15.3491C20.4236 15.6567 20.1638 15.9028 19.847 15.9028ZM18.0477 19.0654C17.5978 19.5023 16.9769 19.773 16.2927 19.773C15.6274 19.773 15.0065 19.5207 14.5313 19.0654C14.0625 18.604 13.8027 18.001 13.8027 17.3549C13.7964 16.715 14.0562 16.112 14.525 15.6506C15.0002 15.1891 15.6274 14.9368 16.2927 14.9368C16.9579 14.9368 17.5852 15.1891 18.054 15.6444C18.5229 16.1059 18.7826 16.715 18.7826 17.3549C18.7763 18.0256 18.4975 18.6286 18.0477 19.0654ZM19.866 13.0602C19.809 13.0602 19.7647 13.0294 19.7393 12.9864L19.676 12.851C19.5049 12.5003 19.3085 12.0942 19.1881 11.8604C18.8967 11.3066 18.3962 10.999 17.7816 10.9928H14.7975C14.1829 10.999 13.6887 11.3066 13.3973 11.8604C13.2706 12.1065 13.0551 12.5495 12.8777 12.9125L12.8397 12.9864C12.8207 13.0356 12.77 13.0602 12.7193 13.0602C11.1924 13.0602 9.95697 14.2662 9.95697 15.7429V19.3977C9.95697 20.8744 11.1924 22.0803 12.7193 22.0803H19.866C21.3866 22.0803 22.6284 20.8744 22.6284 19.3977V15.7429C22.6284 14.2662 21.3866 13.0602 19.866 13.0602Z"
        fill="white"
        fill-rule="evenodd" />
</svg>
