<svg fill="none" height="17" viewBox="0 0 16 17" width="16" xmlns="http://www.w3.org/2000/svg">
    <path clip-rule="evenodd" d="M4.125 0.625C1.91586 0.625 0.125 2.41586 0.125 4.625V12.375C0.125 14.5841 1.91586 16.375 4.125 16.375H11.875C14.0841 16.375 15.875 14.5841 15.875 12.375V4.625C15.875 2.41586 14.0841 0.625 11.875 0.625H4.125ZM12.2701 6.52045L7.38506 11.6371C7.0977 11.9405 6.63793 11.9607 6.33142 11.6573L3.74521 9.16979C3.4387 8.86643 3.41954 8.36083 3.68774 8.03725C3.9751 7.71367 4.45402 7.69344 4.76054 7.9968L6.81035 9.97875L11.1782 5.36769C11.4847 5.0441 11.9636 5.0441 12.2701 5.36769C12.5766 5.69127 12.5766 6.19687 12.2701 6.52045Z"
        fill="url(#paint0_linear_713_4135)"
        fill-rule="evenodd" />
    <defs>
        <linearGradient gradientUnits="userSpaceOnUse" id="paint0_linear_713_4135" x1="8" x2="8" y1="0.625"
            y2="16.375">
            <stop stop-color="#F56C6F" />
            <stop offset="1" stop-color="#F17F4F" />
        </linearGradient>
    </defs>
</svg>
