<svg fill="none" height="20" viewBox="0 0 20 20" width="20" xmlns="http://www.w3.org/2000/svg">
    <path
        d="M12.9834 10C12.9834 11.65 11.65 12.9833 10 12.9833C8.35004 12.9833 7.0167 11.65 7.0167 10C7.0167 8.35 8.35004 7.01666 10 7.01666C11.65 7.01666 12.9834 8.35 12.9834 10Z"
        stroke="#FEFEFE" stroke-linecap="round" stroke-linejoin="round" stroke-width="1.5" />
    <path
        d="M9.99997 16.8916C12.9416 16.8916 15.6833 15.1583 17.5916 12.1583C18.3416 10.9833 18.3416 9.00831 17.5916 7.83331C15.6833 4.83331 12.9416 3.09998 9.99997 3.09998C7.05831 3.09998 4.31664 4.83331 2.40831 7.83331C1.65831 9.00831 1.65831 10.9833 2.40831 12.1583C4.31664 15.1583 7.05831 16.8916 9.99997 16.8916Z"
        stroke="#FEFEFE" stroke-linecap="round" stroke-linejoin="round" stroke-width="1.5" />
</svg>
