<svg fill="none" height="95" viewBox="0 0 92 95" width="92" xmlns="http://www.w3.org/2000/svg">
    <circle cx="46" cy="46" fill="#EDEDED" r="46" />
    <path clip-rule="evenodd" d="M45.6948 64.9703C38.4462 64.9703 32.2561 63.8423 32.2561 59.325C32.2561 54.8076 38.4069 50.6374 45.6948 50.6374C52.9434 50.6374 59.1335 54.7672 59.1335 59.2845C59.1335 63.8001 52.9826 64.9703 45.6948 64.9703Z"
        fill-rule="evenodd"
        stroke="#767575" stroke-linecap="round" stroke-linejoin="round" stroke-width="3.36585" />
    <path clip-rule="evenodd" d="M45.6806 44.3775C50.4374 44.3775 54.2928 40.522 54.2928 35.7652C54.2928 31.0084 50.4374 27.1512 45.6806 27.1512C40.9237 27.1512 37.0665 31.0084 37.0665 35.7652C37.0505 40.506 40.8791 44.3614 45.6199 44.3775C45.6413 44.3775 45.6609 44.3775 45.6806 44.3775Z"
        fill-rule="evenodd"
        stroke="#767575" stroke-linecap="round" stroke-linejoin="round" stroke-width="3.36585" />
    <circle cx="76.2927" cy="78.5366" fill="#F56C6F" r="14.5854" stroke="white"
        stroke-width="2.2439" />
    <rect fill="#F56C6F" height="12.6714" transform="translate(69.957 72.2009)" width="12.6714" />
    <path clip-rule="evenodd" d="M76.2927 77.8598C75.8808 77.8598 75.4944 78.0136 75.1966 78.3028C74.9051 78.5858 74.7467 78.9611 74.7531 79.3488V79.3549C74.7531 79.7548 74.9115 80.1302 75.2029 80.4132C75.4944 80.6962 75.8808 80.8501 76.2927 80.8501C77.1417 80.8501 77.8259 80.1794 77.8322 79.3549C77.8322 78.955 77.6739 78.5796 77.3824 78.2966C77.091 78.0136 76.7045 77.8598 76.2927 77.8598ZM79.847 77.9028C79.5302 77.9028 79.2768 77.6567 79.2768 77.3491C79.2768 77.0414 79.5302 76.7892 79.847 76.7892C80.1638 76.7892 80.4236 77.0414 80.4236 77.3491C80.4236 77.6567 80.1638 77.9028 79.847 77.9028ZM78.0477 81.0654C77.5978 81.5023 76.9769 81.773 76.2927 81.773C75.6274 81.773 75.0065 81.5207 74.5313 81.0654C74.0625 80.604 73.8027 80.001 73.8027 79.3549C73.7964 78.715 74.0562 78.112 74.525 77.6506C75.0002 77.1891 75.6274 76.9368 76.2927 76.9368C76.9579 76.9368 77.5852 77.1891 78.054 77.6444C78.5229 78.1059 78.7826 78.715 78.7826 79.3549C78.7763 80.0256 78.4975 80.6286 78.0477 81.0654ZM79.866 75.0602C79.809 75.0602 79.7647 75.0294 79.7393 74.9864L79.676 74.851C79.5049 74.5003 79.3085 74.0942 79.1881 73.8604C78.8967 73.3066 78.3962 72.999 77.7816 72.9928H74.7975C74.1829 72.999 73.6887 73.3066 73.3973 73.8604C73.2706 74.1065 73.0551 74.5495 72.8777 74.9125L72.8397 74.9864C72.8207 75.0356 72.77 75.0602 72.7193 75.0602C71.1924 75.0602 69.957 76.2662 69.957 77.7429V81.3977C69.957 82.8744 71.1924 84.0803 72.7193 84.0803H79.866C81.3866 84.0803 82.6284 82.8744 82.6284 81.3977V77.7429C82.6284 76.2662 81.3866 75.0602 79.866 75.0602Z"
        fill="white"
        fill-rule="evenodd" />
</svg>
