<svg fill="none" height="24" viewBox="0 0 24 24" width="24" xmlns="http://www.w3.org/2000/svg">
    <path clip-rule="evenodd" d="M11.9989 22.9978C14.916 22.9978 17.7136 21.839 19.7763 19.7763C21.839 17.7136 22.9978 14.916 22.9978 11.9989C22.9978 9.08183 21.839 6.28421 19.7763 4.22151C17.7136 2.15881 14.916 1 11.9989 1C9.08183 1 6.28421 2.15881 4.22151 4.22151C2.15881 6.28421 1 9.08183 1 11.9989C1 14.916 2.15881 17.7136 4.22151 19.7763C6.28421 21.839 9.08183 22.9978 11.9989 22.9978ZM17.0955 10.2212C17.346 9.96192 17.4846 9.61463 17.4814 9.25414C17.4783 8.89366 17.3337 8.54882 17.0788 8.29391C16.8239 8.039 16.4791 7.89441 16.1186 7.89127C15.7581 7.88814 15.4108 8.02672 15.1515 8.27716L10.6241 12.8046L8.84636 11.0269C8.58705 10.7765 8.23976 10.6379 7.87927 10.641C7.51879 10.6441 7.17396 10.7887 6.91904 11.0436C6.66413 11.2986 6.51954 11.6434 6.51641 12.0039C6.51328 12.3644 6.65185 12.7116 6.9023 12.971L9.65203 15.7207C9.90985 15.9784 10.2595 16.1232 10.6241 16.1232C10.9886 16.1232 11.3383 15.9784 11.5961 15.7207L17.0955 10.2212Z"
        fill="url(#paint0_linear_599_12666)"
        fill-rule="evenodd" />
    <defs>
        <linearGradient gradientUnits="userSpaceOnUse" id="paint0_linear_599_12666" x1="11.9989" x2="11.9989" y1="1"
            y2="22.9978">
            <stop stop-color="#F56C6F" />
            <stop offset="1" stop-color="#F17F4F" />
        </linearGradient>
    </defs>
</svg>
