<svg fill="none" height="22" viewBox="0 0 22 22" width="22" xmlns="http://www.w3.org/2000/svg">
    <g clip-path="url(#clip0_588_13695)">
        <path
            d="M17.8408 7.09438L8.20049 2.28989C1.70946 -0.929065 -0.943077 1.70827 2.30244 8.15414L3.73688 10.9986L2.30241 13.843C-0.943108 20.2889 1.71741 22.9342 8.20043 19.7073L17.8408 14.9187C22.1602 12.7594 22.1682 9.24566 17.8408 7.09438ZM11.7693 11.636L8.68788 11.6519C8.44747 11.6519 8.23912 11.5563 8.08686 11.4049C7.9346 11.2535 7.83844 11.0464 7.83844 10.8073C7.83844 10.3452 8.22309 9.96277 8.68788 9.96277L11.7693 9.94681C12.2341 9.94681 12.6187 10.3293 12.6187 10.7914C12.6187 11.2535 12.2341 11.636 11.7693 11.636Z"
            fill="#F56C6F" />
    </g>
    <defs>
        <clipPath id="clip0_588_13695">
            <rect fill="white" height="22" width="22" />
        </clipPath>
    </defs>
</svg>
