<svg fill="none" height="34" viewBox="0 0 34 34" width="34" xmlns="http://www.w3.org/2000/svg">
    <path
        d="M23.105 18.0357C21.1944 17.3646 19.1398 16.9997 17 16.9997C14.8601 16.9997 12.8055 17.3646 10.895 18.0357C10.8315 18.058 10.7997 18.0691 10.7496 18.0912C10.2955 18.2913 9.94671 18.7835 9.90841 19.2783C9.90418 19.3329 9.90418 19.3812 9.90418 19.4779C9.90418 19.8077 9.90418 19.9726 9.89047 20.1114C9.75769 21.4561 8.6939 22.5199 7.34926 22.6526C7.21039 22.6663 7.04552 22.6663 6.71578 22.6663H6.36875C5.71629 22.6663 5.39006 22.6663 5.11869 22.6129C3.99085 22.3905 3.10912 21.5088 2.8868 20.381C2.83331 20.1096 2.83331 19.7834 2.83331 19.1309V18.8502C2.83331 18.1769 2.83331 17.8402 2.9052 17.4543C3.06595 16.5915 3.69287 15.5239 4.36812 14.9631C4.67008 14.7124 4.87487 14.5981 5.28444 14.3697C8.7521 12.4353 12.7473 11.333 17 11.333C21.2526 11.333 25.2479 12.4353 28.7155 14.3697C29.1251 14.5981 29.3299 14.7124 29.6318 14.9631C30.3071 15.5239 30.934 16.5915 31.0948 17.4543C31.1666 17.8402 31.1666 18.1769 31.1666 18.8502V19.1309C31.1666 19.7834 31.1666 20.1096 31.1132 20.381C30.8908 21.5088 30.0091 22.3905 28.8813 22.6129C28.6099 22.6663 28.2837 22.6663 27.6312 22.6663H27.2842C26.9544 22.6663 26.7896 22.6663 26.6507 22.6526C25.3061 22.5199 24.2423 21.4561 24.1095 20.1114C24.0958 19.9726 24.0958 19.8077 24.0958 19.4779C24.0958 19.3812 24.0958 19.3329 24.0916 19.2783C24.0532 18.7835 23.7045 18.2913 23.2503 18.0912C23.2002 18.0691 23.1685 18.058 23.105 18.0357Z"
        stroke="white" stroke-linecap="round" stroke-linejoin="round" stroke-width="2.32812" />
</svg>
