<svg fill="none" height="34" viewBox="0 0 34 34" width="34" xmlns="http://www.w3.org/2000/svg">
    <path
        d="M7.08331 7.08301C4.7361 7.08301 2.83331 8.9858 2.83331 11.333V22.6663C2.83331 25.0136 4.7361 26.9163 7.08331 26.9163H19.8333C21.7496 26.9163 23.3696 25.6481 23.8999 23.9052M24.0833 16.9997L29.2319 11.8511C29.8388 11.2442 30.1422 10.9408 30.4027 10.9203C30.6288 10.9025 30.8497 10.994 30.9969 11.1664C31.1666 11.3651 31.1666 11.7942 31.1666 12.6524V21.3469C31.1666 22.2051 31.1666 22.6343 30.9969 22.833C30.8497 23.0054 30.6288 23.0969 30.4027 23.0791C30.1422 23.0586 29.8388 22.7552 29.2319 22.1483L24.0833 16.9997ZM24.0833 16.9997V13.883C24.0833 11.5028 24.0833 10.3127 23.6201 9.40355C23.2126 8.60386 22.5625 7.95369 21.7628 7.54623C20.8536 7.08301 19.6635 7.08301 17.2833 7.08301H13.4583M2.83331 2.83301L31.1666 31.1663"
        stroke="white" stroke-linecap="round" stroke-linejoin="round" stroke-width="2.32812" />
</svg>
