<svg fill="none" height="24" viewBox="0 0 24 24" width="24" xmlns="http://www.w3.org/2000/svg">
    <path
        d="M23 8.493C23 7.80063 23 7.45445 22.8682 7.29415C22.7539 7.15506 22.5824 7.08125 22.4068 7.0956C22.2046 7.11214 21.969 7.35692 21.4977 7.8465L17.5 12L21.4977 16.1535C21.969 16.6431 22.2046 16.8879 22.4068 16.9044C22.5824 16.9188 22.7539 16.8449 22.8682 16.7058C23 16.5455 23 16.1994 23 15.507V8.493Z"
        fill="url(#paint0_linear_588_13725)" />
    <path
        d="M1 9.48572C1 7.56553 1 6.60544 1.35968 5.87203C1.67606 5.22691 2.1809 4.7024 2.80183 4.37369C3.50774 4 4.43183 4 6.28 4H12.22C14.0682 4 14.9923 4 15.6982 4.37369C16.3191 4.7024 16.8239 5.22691 17.1403 5.87203C17.5 6.60544 17.5 7.56553 17.5 9.48571V14.5143C17.5 16.4345 17.5 17.3946 17.1403 18.128C16.8239 18.7731 16.3191 19.2976 15.6982 19.6263C14.9923 20 14.0682 20 12.22 20H6.28C4.43183 20 3.50774 20 2.80183 19.6263C2.1809 19.2976 1.67606 18.7731 1.35968 18.128C1 17.3946 1 16.4345 1 14.5143V9.48572Z"
        fill="url(#paint1_linear_588_13725)" />
    <defs>
        <linearGradient gradientUnits="userSpaceOnUse" id="paint0_linear_588_13725" x1="12" x2="12" y1="4"
            y2="20">
            <stop stop-color="#F56C6F" />
            <stop offset="1" stop-color="#F17F4F" />
        </linearGradient>
        <linearGradient gradientUnits="userSpaceOnUse" id="paint1_linear_588_13725" x1="12" x2="12" y1="4"
            y2="20">
            <stop stop-color="#F56C6F" />
            <stop offset="1" stop-color="#F17F4F" />
        </linearGradient>
    </defs>
</svg>
