<svg fill="none" height="19" viewBox="0 0 18 19" width="18" xmlns="http://www.w3.org/2000/svg">
    <path clip-rule="evenodd" d="M8.88341 16.7464C6.11455 16.7464 3.75 16.3156 3.75 14.59C3.75 12.8644 6.09955 11.2714 8.88341 11.2714C11.6523 11.2714 14.0168 12.8489 14.0168 14.5745C14.0168 16.2994 11.6673 16.7464 8.88341 16.7464Z"
        fill-rule="evenodd"
        stroke="#767575" stroke-linecap="round" stroke-linejoin="round" stroke-width="1.5" />
    <path clip-rule="evenodd" d="M8.878 8.88022C10.695 8.88022 12.1678 7.40749 12.1678 5.59044C12.1678 3.7734 10.695 2.29999 8.878 2.29999C7.06095 2.29999 5.58754 3.7734 5.58754 5.59044C5.58141 7.40135 7.04391 8.87408 8.85482 8.88022C8.863 8.88022 8.8705 8.88022 8.878 8.88022Z"
        fill-rule="evenodd"
        stroke="#767575" stroke-linecap="round" stroke-linejoin="round" stroke-width="1.5" />
</svg>
