<svg fill="none" height="24" viewBox="0 0 25 24" width="25" xmlns="http://www.w3.org/2000/svg">
    <path
        d="M7.1129 5.2097L7.20711 5.29289L12.5 10.585L17.7929 5.29289C18.1834 4.90237 18.8166 4.90237 19.2071 5.29289C19.5676 5.65338 19.5953 6.22061 19.2903 6.6129L19.2071 6.70711L13.915 12L19.2071 17.2929C19.5976 17.6834 19.5976 18.3166 19.2071 18.7071C18.8466 19.0676 18.2794 19.0953 17.8871 18.7903L17.7929 18.7071L12.5 13.415L7.20711 18.7071C6.81658 19.0976 6.18342 19.0976 5.79289 18.7071C5.43241 18.3466 5.40468 17.7794 5.7097 17.3871L5.79289 17.2929L11.085 12L5.79289 6.70711C5.40237 6.31658 5.40237 5.68342 5.79289 5.29289C6.12334 4.96245 6.62751 4.91161 7.0114 5.14038L7.1129 5.2097Z"
        fill="#202226" />
</svg>
