<svg fill="none" height="22" viewBox="0 0 22 22" width="22" xmlns="http://www.w3.org/2000/svg">
    <path clip-rule="evenodd" d="M11 19.8C13.3339 19.8 15.5722 18.8729 17.2225 17.2226C18.8728 15.5722 19.7999 13.3339 19.7999 11C19.7999 8.66611 18.8728 6.42779 17.2225 4.77747C15.5722 3.12715 13.3339 2.20001 11 2.20001C8.66605 2.20001 6.42773 3.12715 4.77741 4.77747C3.12709 6.42779 2.19995 8.66611 2.19995 11C2.19995 13.3339 3.12709 15.5722 4.77741 17.2226C6.42773 18.8729 8.66605 19.8 11 19.8ZM15.0777 9.57771C15.278 9.37025 15.3889 9.09239 15.3864 8.80397C15.3839 8.51555 15.2682 8.23966 15.0642 8.03571C14.8603 7.83176 14.5844 7.71608 14.296 7.71357C14.0076 7.71106 13.7297 7.82194 13.5223 8.02231L9.89995 11.6446L8.47765 10.2223C8.27019 10.0219 7.99233 9.91106 7.70391 9.91357C7.41549 9.91608 7.1396 10.0318 6.93565 10.2357C6.7317 10.4397 6.61602 10.7156 6.61351 11.004C6.611 11.2924 6.72188 11.5702 6.92225 11.7777L9.12225 13.9777C9.32853 14.1839 9.60827 14.2998 9.89995 14.2998C10.1916 14.2998 10.4714 14.1839 10.6777 13.9777L15.0777 9.57771Z"
        fill="#3DA933"
        fill-rule="evenodd" />
</svg>
