<svg fill="none" height="28" viewBox="0 0 28 28" width="28" xmlns="http://www.w3.org/2000/svg">
    <circle cx="14" cy="14" r="13.5" stroke="white" />
    <path
        d="M10.7275 19.6875C10.2084 19.6875 9.70085 19.5335 9.26917 19.2451C8.83749 18.9567 8.50104 18.5467 8.30236 18.067C8.10368 17.5874 8.05169 17.0596 8.15298 16.5504C8.25427 16.0412 8.50427 15.5735 8.87138 15.2063C9.2385 14.8392 9.70623 14.5892 10.2154 14.4879C10.7246 14.3867 11.2524 14.4386 11.7321 14.6373C12.2117 14.836 12.6217 15.1725 12.9101 15.6041C13.1986 16.0358 13.3525 16.5433 13.3525 17.0625C13.3525 17.7587 13.076 18.4264 12.5837 18.9187C12.0914 19.4109 11.4237 19.6875 10.7275 19.6875ZM10.7275 15.3125C10.3814 15.3125 10.0431 15.4151 9.75529 15.6074C9.46751 15.7997 9.2432 16.073 9.11075 16.3928C8.9783 16.7126 8.94364 17.0644 9.01117 17.4039C9.07869 17.7434 9.24536 18.0552 9.4901 18.2999C9.73485 18.5447 10.0467 18.7114 10.3861 18.7789C10.7256 18.8464 11.0775 18.8117 11.3972 18.6793C11.717 18.5468 11.9903 18.3225 12.1826 18.0347C12.3749 17.747 12.4775 17.4086 12.4775 17.0625C12.4775 16.5984 12.2932 16.1533 11.965 15.8251C11.6368 15.4969 11.1917 15.3125 10.7275 15.3125Z"
        fill="white" />
    <path
        d="M17.29 19.6875C16.7709 19.6875 16.2633 19.5335 15.8317 19.2451C15.4 18.9567 15.0635 18.5467 14.8649 18.067C14.6662 17.5874 14.6142 17.0596 14.7155 16.5504C14.8168 16.0412 15.0668 15.5735 15.4339 15.2063C15.801 14.8392 16.2687 14.5892 16.7779 14.4879C17.2871 14.3867 17.8149 14.4386 18.2946 14.6373C18.7742 14.836 19.1842 15.1725 19.4726 15.6041C19.7611 16.0358 19.915 16.5433 19.915 17.0625C19.915 17.7587 19.6385 18.4264 19.1462 18.9187C18.6539 19.4109 17.9862 19.6875 17.29 19.6875ZM17.29 15.3125C16.9439 15.3125 16.6056 15.4151 16.3178 15.6074C16.03 15.7997 15.8057 16.073 15.6733 16.3928C15.5408 16.7126 15.5061 17.0644 15.5737 17.4039C15.6412 17.7434 15.8079 18.0552 16.0526 18.2999C16.2973 18.5447 16.6092 18.7114 16.9486 18.7789C17.2881 18.8464 17.64 18.8117 17.9597 18.6793C18.2795 18.5468 18.5528 18.3225 18.7451 18.0347C18.9374 17.747 19.04 17.4086 19.04 17.0625C19.04 16.5984 18.8557 16.1533 18.5275 15.8251C18.1993 15.4969 17.7542 15.3125 17.29 15.3125Z"
        fill="white" />
    <path d="M12.915 16.6294H15.1025V17.5044H12.915V16.6294Z" fill="white" />
    <path
        d="M10.7275 19.2544C11.9357 19.2544 12.915 18.275 12.915 17.0669C12.915 15.8588 11.9357 14.8794 10.7275 14.8794C9.51942 14.8794 8.54004 15.8588 8.54004 17.0669C8.54004 18.275 9.51942 19.2544 10.7275 19.2544Z"
        fill="white" />
    <path
        d="M17.29 19.2544C18.4982 19.2544 19.4775 18.275 19.4775 17.0669C19.4775 15.8588 18.4982 14.8794 17.29 14.8794C16.0819 14.8794 15.1025 15.8588 15.1025 17.0669C15.1025 18.275 16.0819 19.2544 17.29 19.2544Z"
        fill="white" />
    <path
        d="M19.6963 12.6919H8.32129C8.07966 12.6919 7.88379 12.8878 7.88379 13.1294C7.88379 13.371 8.07966 13.5669 8.32129 13.5669H19.6963C19.9379 13.5669 20.1338 13.371 20.1338 13.1294C20.1338 12.8878 19.9379 12.6919 19.6963 12.6919Z"
        fill="white" />
    <path
        d="M18.9176 13.5625H9.1001L9.9751 9.29688C10.0298 9.02331 10.1763 8.77662 10.3903 8.59762C10.6043 8.41862 10.873 8.31804 11.152 8.3125H16.8613C17.1441 8.31305 17.4179 8.41137 17.6364 8.59079C17.8549 8.7702 18.0046 9.01967 18.0601 9.29688L18.9176 13.5625ZM10.1676 12.6875H17.8501L17.2026 9.4675C17.1865 9.38874 17.1438 9.31791 17.0817 9.26692C17.0195 9.21593 16.9417 9.18789 16.8613 9.1875H11.152C11.0716 9.18789 10.9938 9.21593 10.9316 9.26692C10.8695 9.31791 10.8268 9.38874 10.8107 9.4675L10.1676 12.6875Z"
        fill="white" />
    <path
        d="M18.375 13.125H9.625L10.3819 9.38437C10.4172 9.20599 10.5132 9.04534 10.6536 8.9297C10.794 8.81406 10.97 8.75057 11.1519 8.75H16.8613C17.0431 8.75057 17.2192 8.81406 17.3595 8.9297C17.4999 9.04534 17.5959 9.20599 17.6312 9.38437L18.375 13.125Z"
        fill="white" />
</svg>
