<svg fill="none" height="32" viewBox="0 0 32 32" width="32" xmlns="http://www.w3.org/2000/svg">
    <circle cx="16" cy="16" r="15.5" stroke="#202226" />
    <path
        d="M12.26 22.5C11.6667 22.5 11.0866 22.3241 10.5933 21.9944C10.0999 21.6648 9.71542 21.1962 9.48836 20.6481C9.26129 20.0999 9.20188 19.4967 9.31764 18.9147C9.4334 18.3328 9.71912 17.7982 10.1387 17.3787C10.5582 16.9591 11.0928 16.6734 11.6747 16.5576C12.2567 16.4419 12.8599 16.5013 13.408 16.7284C13.9562 16.9554 14.4248 17.3399 14.7544 17.8333C15.084 18.3266 15.26 18.9067 15.26 19.5C15.26 20.2957 14.9439 21.0587 14.3813 21.6213C13.8187 22.1839 13.0556 22.5 12.26 22.5ZM12.26 17.5C11.8644 17.5 11.4778 17.6173 11.1489 17.8371C10.82 18.0568 10.5636 18.3692 10.4122 18.7346C10.2609 19.1001 10.2213 19.5022 10.2984 19.8902C10.3756 20.2781 10.5661 20.6345 10.8458 20.9142C11.1255 21.1939 11.4819 21.3844 11.8698 21.4616C12.2578 21.5387 12.6599 21.4991 13.0254 21.3478C13.3908 21.1964 13.7032 20.94 13.9229 20.6111C14.1427 20.2822 14.26 19.8956 14.26 19.5C14.26 18.9696 14.0493 18.4609 13.6742 18.0858C13.2991 17.7107 12.7904 17.5 12.26 17.5Z"
        fill="#202226" />
    <path
        d="M19.76 22.5C19.1667 22.5 18.5866 22.3241 18.0933 21.9944C17.5999 21.6648 17.2154 21.1962 16.9884 20.6481C16.7613 20.0999 16.7019 19.4967 16.8176 18.9147C16.9334 18.3328 17.2191 17.7982 17.6387 17.3787C18.0582 16.9591 18.5928 16.6734 19.1747 16.5576C19.7567 16.4419 20.3599 16.5013 20.908 16.7284C21.4562 16.9554 21.9248 17.3399 22.2544 17.8333C22.584 18.3266 22.76 18.9067 22.76 19.5C22.76 20.2957 22.4439 21.0587 21.8813 21.6213C21.3187 22.1839 20.5556 22.5 19.76 22.5ZM19.76 17.5C19.3644 17.5 18.9778 17.6173 18.6489 17.8371C18.32 18.0568 18.0636 18.3692 17.9122 18.7346C17.7609 19.1001 17.7213 19.5022 17.7984 19.8902C17.8756 20.2781 18.0661 20.6345 18.3458 20.9142C18.6255 21.1939 18.9819 21.3844 19.3698 21.4616C19.7578 21.5387 20.1599 21.4991 20.5254 21.3478C20.8908 21.1964 21.2032 20.94 21.4229 20.6111C21.6427 20.2822 21.76 19.8956 21.76 19.5C21.76 18.9696 21.5493 18.4609 21.1742 18.0858C20.7991 17.7107 20.2904 17.5 19.76 17.5Z"
        fill="#202226" />
    <path d="M14.76 19.005H17.26V20.005H14.76V19.005Z" fill="#202226" />
    <path
        d="M12.26 22.005C13.6407 22.005 14.76 20.8857 14.76 19.505C14.76 18.1243 13.6407 17.005 12.26 17.005C10.8793 17.005 9.75999 18.1243 9.75999 19.505C9.75999 20.8857 10.8793 22.005 12.26 22.005Z"
        fill="#202226" />
    <path
        d="M19.76 22.005C21.1407 22.005 22.26 20.8857 22.26 19.505C22.26 18.1243 21.1407 17.005 19.76 17.005C18.3793 17.005 17.26 18.1243 17.26 19.505C17.26 20.8857 18.3793 22.005 19.76 22.005Z"
        fill="#202226" />
    <path
        d="M22.51 14.505H9.50999C9.23385 14.505 9.00999 14.7289 9.00999 15.005C9.00999 15.2811 9.23385 15.505 9.50999 15.505H22.51C22.7861 15.505 23.01 15.2811 23.01 15.005C23.01 14.7289 22.7861 14.505 22.51 14.505Z"
        fill="#202226" />
    <path
        d="M21.62 15.5H10.4L11.4 10.625C11.4626 10.3123 11.63 10.0304 11.8746 9.82585C12.1191 9.62128 12.4262 9.50633 12.745 9.5H19.27C19.5931 9.50063 19.906 9.613 20.1557 9.81804C20.4054 10.0231 20.5765 10.3082 20.64 10.625L21.62 15.5ZM11.62 14.5H20.4L19.66 10.82C19.6416 10.73 19.5928 10.649 19.5218 10.5908C19.4508 10.5325 19.3619 10.5004 19.27 10.5H12.745C12.6531 10.5004 12.5642 10.5325 12.4932 10.5908C12.4222 10.649 12.3734 10.73 12.355 10.82L11.62 14.5Z"
        fill="#202226" />
    <path
        d="M21 15H11L11.865 10.725C11.9054 10.5211 12.0151 10.3375 12.1755 10.2054C12.336 10.0732 12.5372 10.0007 12.745 10H19.27C19.4778 10.0007 19.679 10.0732 19.8395 10.2054C19.9999 10.3375 20.1096 10.5211 20.15 10.725L21 15Z"
        fill="#202226" />
</svg>
