<svg fill="none" height="20" viewBox="0 0 18 20" width="18" xmlns="http://www.w3.org/2000/svg">
    <path
        d="M15.2997 14.359H2.64353V15.8974H15.2997V14.359ZM14.6896 6.79842L15.0434 9.92092L16.5721 9.7478L16.2184 6.62524L14.6896 6.79842ZM2.89979 9.92092L3.25351 6.79842L1.72482 6.62524L1.37111 9.7478L2.89979 9.92092ZM1.81986 12.4264C2.41951 11.7205 2.79492 10.8467 2.89979 9.92092L1.37111 9.7478C1.30019 10.3738 1.04667 10.9603 0.647416 11.4302L1.81986 12.4264ZM15.0434 9.92092C15.1483 10.8467 15.5237 11.7205 16.1233 12.4264L17.2958 11.4302C16.8965 10.9603 16.643 10.3738 16.5721 9.7478L15.0434 9.92092ZM2.64353 14.359C1.73399 14.359 1.15545 13.2083 1.81986 12.4264L0.647416 11.4302C-0.807989 13.1433 0.333929 15.8974 2.64353 15.8974V14.359ZM15.2997 15.8974C17.6092 15.8974 18.7512 13.1433 17.2958 11.4302L16.1233 12.4264C16.7877 13.2083 16.2092 14.359 15.2997 14.359V15.8974ZM16.2184 6.62524C15.7925 2.86639 12.6925 0 8.97159 0V1.53846C11.8744 1.53846 14.3479 3.78152 14.6896 6.79842L16.2184 6.62524ZM3.25351 6.79842C3.59526 3.78152 6.06879 1.53846 8.97159 1.53846V0C5.25069 0 2.15063 2.86639 1.72482 6.62524L3.25351 6.79842Z"
        fill="white" />
    <path
        d="M12.7688 17.4496C12.918 17.0517 12.7163 16.6084 12.3185 16.4593C11.9206 16.3102 11.4773 16.5118 11.3282 16.9097L12.7688 17.4496ZM6.61499 16.9097C6.4659 16.5118 6.02255 16.3102 5.62473 16.4593C5.22692 16.6084 5.02529 17.0517 5.17437 17.4496L6.61499 16.9097ZM11.3282 16.9097C10.9972 17.7928 10.084 18.4617 8.97161 18.4617V20.0001C10.7003 20.0001 12.204 18.9565 12.7688 17.4496L11.3282 16.9097ZM8.97161 18.4617C7.8592 18.4617 6.94596 17.7928 6.61499 16.9097L5.17437 17.4496C5.73914 18.9565 7.24289 20.0001 8.97161 20.0001V18.4617Z"
        fill="white" />
</svg>
