<svg fill="none" height="24" viewBox="0 0 17 24" width="17" xmlns="http://www.w3.org/2000/svg">
    <path clip-rule="evenodd" d="M8.83167 22.4669C4.8322 22.4669 1.41675 21.8446 1.41675 19.352C1.41675 16.8595 4.81054 14.5586 8.83167 14.5586C12.8311 14.5586 16.2466 16.8372 16.2466 19.3297C16.2466 21.8212 12.8528 22.4669 8.83167 22.4669Z"
        fill-rule="evenodd"
        stroke="#777777" stroke-linecap="round" stroke-linejoin="round" stroke-width="1.5" />
    <path clip-rule="evenodd" d="M8.82371 11.1044C11.4483 11.1044 13.5756 8.97711 13.5756 6.35249C13.5756 3.72787 11.4483 1.59961 8.82371 1.59961C6.19909 1.59961 4.07083 3.72787 4.07083 6.35249C4.06196 8.96825 6.17447 11.0955 8.79022 11.1044C8.80204 11.1044 8.81287 11.1044 8.82371 11.1044Z"
        fill-rule="evenodd"
        stroke="#777777" stroke-linecap="round" stroke-linejoin="round" stroke-width="1.5" />
</svg>
