<svg fill="none" height="46" viewBox="0 0 46 46" width="46" xmlns="http://www.w3.org/2000/svg">
    <g clip-path="url(#clip0_4_11)">
        <path
            d="M23 45.5C35.4264 45.5 45.5 35.4264 45.5 23C45.5 10.5736 35.4264 0.5 23 0.5C10.5736 0.5 0.5 10.5736 0.5 23C0.5 35.4264 10.5736 45.5 23 45.5Z"
            stroke="#F56C6F" />
        <g clip-path="url(#clip1_4_11)">
            <path
                d="M23.3813 13.8333C19.1275 13.8333 15.6667 17.2941 15.6667 21.5479C15.6667 26.3197 20.9914 30.6866 22.6234 31.912C22.8504 32.0818 23.1155 32.1667 23.3813 32.1667C23.647 32.1667 23.9128 32.0818 24.1391 31.9114C25.7711 30.6866 31.0959 26.3197 31.0959 21.5479C31.0959 17.2941 27.635 13.8333 23.3813 13.8333ZM23.3813 24.7492C21.5487 24.7492 20.0588 23.2587 20.0588 21.4261C20.0588 19.5936 21.5487 18.1037 23.3813 18.1037C25.2138 18.1037 26.7037 19.5942 26.7037 21.4261C26.7037 23.258 25.2138 24.7492 23.3813 24.7492Z"
                fill="#F56C6F" />
        </g>
    </g>
    <defs>
        <clipPath id="clip0_4_11">
            <rect fill="white" height="46" width="46" />
        </clipPath>
        <clipPath id="clip1_4_11">
            <rect fill="white" height="20" transform="translate(14 13)" width="17" />
        </clipPath>
    </defs>
</svg>
