<svg fill="none" height="18" viewBox="0 0 18 18" width="18" xmlns="http://www.w3.org/2000/svg">
    <path
        d="M9.31195 1.5C5.83159 1.5 3 4.33159 3 7.81195C3 11.7161 7.35661 15.289 8.69188 16.2916C8.8776 16.4305 9.09452 16.5 9.31195 16.5C9.52938 16.5 9.74681 16.4305 9.93202 16.2911C11.2673 15.289 15.6239 11.7161 15.6239 7.81195C15.6239 4.33159 12.7923 1.5 9.31195 1.5ZM9.31195 10.4311C7.8126 10.4311 6.5936 9.21164 6.5936 7.71229C6.5936 6.21295 7.8126 4.99394 9.31195 4.99394C10.8113 4.99394 12.0303 6.21345 12.0303 7.71229C12.0303 9.21113 10.8113 10.4311 9.31195 10.4311Z"
        fill="#F56C6F" />
</svg>
