<svg fill="none" height="46" viewBox="0 0 46 46" width="46" xmlns="http://www.w3.org/2000/svg">
    <circle cx="23" cy="23" r="22.5" stroke="#F56C6F" />
    <path
        d="M23.3813 13.8333C19.1275 13.8333 15.6667 17.2941 15.6667 21.5479C15.6667 26.3196 20.9914 30.6865 22.6234 31.9119C22.8504 32.0817 23.1155 32.1666 23.3813 32.1666C23.647 32.1666 23.9128 32.0817 24.1392 31.9113C25.7712 30.6865 31.0959 26.3196 31.0959 21.5479C31.0959 17.2941 27.6351 13.8333 23.3813 13.8333ZM23.3813 24.7491C21.5488 24.7491 20.0589 23.2586 20.0589 21.4261C20.0589 19.5935 21.5488 18.1036 23.3813 18.1036C25.2138 18.1036 26.7037 19.5941 26.7037 21.4261C26.7037 23.258 25.2138 24.7491 23.3813 24.7491Z"
        fill="#F56C6F" />
</svg>
